<svg xmlns="http://www.w3.org/2000/svg" xmlns:xlink="http://www.w3.org/1999/xlink" viewBox="0 0 336.88 144"><defs><style>.cls-1{isolation:isolate;}.cls-2{opacity:0.3;mix-blend-mode:multiply;fill:url(#Degradado_sin_nombre_24);}.cls-3,.cls-8{fill:#048ed6;}.cls-4,.cls-5{fill:#003159;}.cls-5{font-size:38.33px;font-family:Montserrat-ExtraBold, Montserrat;font-weight:800;letter-spacing:-0.06em;}.cls-6{letter-spacing:0em;}.cls-7{letter-spacing:0em;}.cls-8{letter-spacing:0em;}</style><radialGradient id="Degradado_sin_nombre_24" cx="19.35" cy="253.54" r="88.33" gradientTransform="translate(82.49 96.92) scale(0.69 0.13)" gradientUnits="userSpaceOnUse"><stop offset="0" stop-color="#606060"/><stop offset="1" stop-color="#eaedee" stop-opacity="0"/></radialGradient></defs><g class="cls-1"><g id="OBJECTS"><ellipse class="cls-2" cx="95.92" cy="128.66" rx="86.6" ry="15.34"/><path class="cls-3" d="M31.34,46.41,26.61,78.67l46.08-6.59,5.22,68.11,38.73,10Q109.29,109.07,102,67.92l44.13.49q-1.16-15.82-2.3-31.64Z" transform="translate(-10.22 -36.77)"/><path class="cls-4" d="M87.81,156.69a9.26,9.26,0,0,0-1.45-2.81A9.64,9.64,0,0,0,78.65,150c-.31,0-.62,0-.93.05a9.66,9.66,0,0,0-2.28.5,9.81,9.81,0,0,0-2.81,1.53A9.42,9.42,0,0,0,70.81,154a9.26,9.26,0,0,0-1.74,6.37A9.55,9.55,0,0,0,78.62,169c.31,0,.62,0,.93,0a9.51,9.51,0,0,0,8.68-9.64c0-.23,0-.45,0-.68A9.25,9.25,0,0,0,87.81,156.69Z" transform="translate(-10.22 -36.77)"/><path class="cls-4" d="M138.86,147.09a9.67,9.67,0,0,0-5.74-2.12l-.32,0c-.31,0-.62,0-.93.05a9.6,9.6,0,0,0-7.4,4.7,9.34,9.34,0,0,0-1.17,3.23,9.45,9.45,0,0,0-.08,2.38c0,.11,0,.2,0,.31a9.56,9.56,0,0,0,9.52,8.26c.3,0,.61,0,.92,0a9.5,9.5,0,0,0,8.65-10.32A9.39,9.39,0,0,0,138.86,147.09Z" transform="translate(-10.22 -36.77)"/><path class="cls-4" d="M52.43,98.62,50.76,81.34A16.4,16.4,0,0,0,34.38,66.67c-.52,0-1.05,0-1.57.08L17.09,68.22a7.46,7.46,0,0,0,.71,14.9q.36,0,.72,0l15.72-1.47h.13a1.28,1.28,0,0,1,1.28,1.15L37.32,100A59.6,59.6,0,0,0,39,109.38a8,8,0,0,1,3.38-2L53.28,104A48,48,0,0,1,52.43,98.62Z" transform="translate(-10.22 -36.77)"/><path class="cls-4" d="M160.48,88.49l-.87-9a7.54,7.54,0,0,0-7.54-6.76,6.06,6.06,0,0,0-.73,0A7.49,7.49,0,0,0,144.51,81l.87,9c.12,1.28.18,2.55.19,3.82A45.83,45.83,0,0,1,125,132.33,47,47,0,0,1,103.33,140c-1.5.14-3,.21-4.46.21a46.94,46.94,0,0,1-30.42-11.17l-1.28,3.63a8.05,8.05,0,0,1-15,.27l-2.73-6.89-4.61-2.3a61.84,61.84,0,0,0,25,24.21,14.64,14.64,0,0,1,7.42-2.85c.47,0,.94-.07,1.41-.07h0a14.58,14.58,0,0,1,13.86,9.77,60.66,60.66,0,0,0,6.35.34c2,0,3.92-.1,5.91-.28a62.11,62.11,0,0,0,13.55-2.82,14.28,14.28,0,0,1,3.16-6.84A14.65,14.65,0,0,1,131.4,140c.46,0,.93-.06,1.4-.06h0a15,15,0,0,1,5.62,1.09A60.42,60.42,0,0,0,160.48,88.49Z" transform="translate(-10.22 -36.77)"/><path class="cls-3" d="M67.44,104.6a3.79,3.79,0,0,0-1,.15l-22.69,6.9a3.36,3.36,0,0,0-.54,6.25l8.7,4.34A3.39,3.39,0,0,1,53.52,124l2.88,7.29a3.46,3.46,0,0,0,6.45-.12l7.81-22.1A3.39,3.39,0,0,0,67.44,104.6Z" transform="translate(-10.22 -36.77)"/><path class="cls-3" d="M-598-310.15" transform="translate(-10.22 -36.77)"/></g><g id="TEXTS"><text class="cls-5" transform="translate(161.74 76.03) scale(0.92 1)">T<tspan class="cls-6" x="21.77" y="0">o</tspan><tspan class="cls-7" x="46.49" y="0">t</tspan><tspan class="cls-6" x="63.73" y="0">o</tspan><tspan class="cls-8" x="88.45" y="0">Shop</tspan></text></g></g></svg>